<svg width="120" height="124" viewBox="0 0 120 124" fill="none" xmlns="http://www.w3.org/2000/svg">
<g filter="url(#filter0_d)">
<ellipse cx="60" cy="57" rx="40" ry="42" fill="#5A64B0"/>
<ellipse cx="60" cy="57" rx="40" ry="42" fill="url(#paint0_linear)"/>
</g>
<circle cx="60" cy="55" r="40" fill="url(#paint1_linear)"/>
<path d="M66.1158 53.5143L57.2403 47.43C56.8305 47.1488 56.4175 47 56.0742 47C55.4105 47 55 47.5333 55 48.4261V61.576C55 62.4677 55.41 63 56.0721 63C56.4159 63 56.8223 62.8511 57.2331 62.5691L66.1127 56.485C66.6838 56.093 67 55.5657 67 54.9993C67.0001 54.4333 66.6875 53.906 66.1158 53.5143Z" fill="white"/>
<defs>
<filter id="filter0_d" x="0" y="0" width="120" height="124" filterUnits="userSpaceOnUse" color-interpolation-filters="sRGB">
<feFlood flood-opacity="0" result="BackgroundImageFix"/>
<feColorMatrix in="SourceAlpha" type="matrix" values="0 0 0 0 0 0 0 0 0 0 0 0 0 0 0 0 0 0 127 0"/>
<feOffset dy="5"/>
<feGaussianBlur stdDeviation="10"/>
<feColorMatrix type="matrix" values="0 0 0 0 0.23592 0 0 0 0 0.266351 0 0 0 0 0.529167 0 0 0 0.51 0"/>
<feBlend mode="normal" in2="BackgroundImageFix" result="effect1_dropShadow"/>
<feBlend mode="normal" in="SourceGraphic" in2="effect1_dropShadow" result="shape"/>
</filter>
<linearGradient id="paint0_linear" x1="60" y1="71.175" x2="60" y2="99" gradientUnits="userSpaceOnUse">
<stop stop-color="#8793F3"/>
<stop offset="1" stop-color="#5562CB"/>
</linearGradient>
<linearGradient id="paint1_linear" x1="60" y1="15" x2="60" y2="95" gradientUnits="userSpaceOnUse">
<stop stop-color="#ABB5FF"/>
<stop offset="1" stop-color="#7986EC"/>
</linearGradient>
</defs>
</svg>
